<?xml version="1.0" encoding="utf-8"?>
<!-- Generator: Adobe Illustrator 23.0.1, SVG Export Plug-In . SVG Version: 6.00 Build 0)  -->
<svg version="1.1" id="Layer_1" xmlns="http://www.w3.org/2000/svg" xmlns:xlink="http://www.w3.org/1999/xlink" x="0px" y="0px"
	 viewBox="0 0 85 85" style="enable-background:new 0 0 85 85;" xml:space="preserve">
<style type="text/css">
	.st0{fill:#FFFFFF;}
	.st1{fill:#8CC9F0;}
	.st2{fill-rule:evenodd;clip-rule:evenodd;fill:#231F20;}
	.st3{fill:#F7D186;}
	.st4{fill-rule:evenodd;clip-rule:evenodd;fill:#FFFFFF;}
	.st5{fill:#00A5DE;}
	.st6{fill-rule:evenodd;clip-rule:evenodd;fill:#82CEF2;}
</style>
<g>
	<path class="st0" d="M42.5,0C65.97,0,85,19.03,85,42.5S65.97,85,42.5,85S0,65.97,0,42.5S19.03,0,42.5,0z"/>
</g>
<g>
	<path class="st1" d="M53.53,34.61c0,1.07-0.87,1.93-1.93,1.93c-1.07,0-1.93-0.87-1.93-1.93c0-1.07,0.87-1.93,1.93-1.93
		C52.66,32.68,53.53,33.54,53.53,34.61z M58.04,28.81c0-0.36-0.32-0.64-0.69-0.64c-7.01,0-10.86,1.61-15.9,6.63
		c-1.15,1.17-2.34,2.5-3.55,3.93l-7.64,0.4c-0.2,0.02-0.4,0.14-0.52,0.32l-4.51,7.74c-0.14,0.24-0.1,0.56,0.1,0.79l1.29,1.29
		c0.12,0.12,0.3,0.18,0.46,0.18c0.06,0,0.12,0,0.18-0.02l5.56-1.71l5.66,5.66l-1.71,5.56c-0.06,0.22,0,0.46,0.16,0.64l1.29,1.29
		c0.14,0.12,0.3,0.18,0.46,0.18c0.12,0,0.22-0.02,0.32-0.08l7.74-4.52c0.18-0.12,0.3-0.32,0.32-0.52l0.4-7.64
		c1.43-1.21,2.76-2.4,3.93-3.55C56.19,39.95,58.04,35.5,58.04,28.81z"/>
</g>
<g>
	
		<ellipse transform="matrix(0.1602 -0.9871 0.9871 0.1602 -6.2589 77.6434)" class="st2" cx="42.5" cy="42.5" rx="40.93" ry="40.93"/>
	<path class="st0" d="M64.97,41.58c-0.05-1.14-0.18-2.26-0.39-3.35c-0.44-2.27-1.22-4.42-2.29-6.4c-0.61-1.13-1.31-2.2-2.1-3.2
		c-4.11-5.22-10.48-8.57-17.64-8.57c-10.05,0-18.55,6.61-21.4,15.71c-0.16,0.49-0.29,0.99-0.41,1.5c-0.3,1.24-0.49,2.53-0.57,3.84
		c-0.03,0.45-0.04,0.91-0.04,1.37c0,0.08,0,0.16,0,0.24c0.02,1.85,0.26,3.65,0.7,5.37c0.28,1.08,0.63,2.12,1.06,3.13
		c3.41,8.05,11.37,13.69,20.66,13.69c6.62,0,12.58-2.87,16.68-7.44c0.45-0.51,0.89-1.03,1.3-1.58c2.79-3.74,4.45-8.38,4.45-13.41
		C64.99,42.18,64.98,41.88,64.97,41.58z M57.72,41.82l-1.73,0.56l-2.37-8.18l1.68-0.54c0.83-0.27,1.47-0.32,1.91-0.14
		c0.45,0.17,0.77,0.56,0.96,1.15l1.24,4.67C59.79,40.51,59.23,41.33,57.72,41.82z M21.81,45.77l6.75,12.27
		C25.05,54.92,22.59,50.63,21.81,45.77z M42.41,63.3c-3.9,0-7.54-1.07-10.66-2.93l3.64-2.01L29.32,47.3l4.59-2.49l-2.37-4.56
		l-4.71,2.5l-2-3.6l7.49-4.03l-2.3-4.22l-7.02,3.86c1.9-4.81,5.55-8.74,10.15-11.02l4.67,26.3l4.22-0.75L40,38.1l1.79-0.32
		c2.23-0.4,3.8-1.07,4.72-2.03c0.92-0.96,1.22-2.3,0.92-4.01l-1.04-6.19c-0.3-1.72-1.05-2.88-2.23-3.47c-0.5-0.25-1.1-0.42-1.8-0.49
		h0.04c6.67,0,12.6,3.13,16.42,7.99c-1.2-0.27-2.79-0.08-4.75,0.55l-5.76,1.86l8.31,25.72C52.9,61.17,47.9,63.3,42.41,63.3z
		 M42.4,26.84l0.59,4.8c0.21,1.21-0.46,1.95-2.02,2.23l-1.79,0.32l-1.23-8.43l1.74-0.31c0.85-0.15,1.49-0.11,1.92,0.12
		C42.03,25.8,42.29,26.23,42.4,26.84z M59.87,53.85l-2.54-7.71l1.73-0.56c1.98-0.64,3.37-1.43,4.19-2.39
		C63.11,47.12,61.89,50.77,59.87,53.85z"/>
	<path class="st3" d="M63.27,42.44c0,0.25,0,0.51-0.01,0.75c-0.14,3.93-1.36,7.58-3.39,10.66c-0.92,1.41-2.01,2.7-3.24,3.85
		c-3.73,3.47-8.72,5.6-14.22,5.6c-3.9,0-7.54-1.07-10.66-2.93c-1.13-0.67-2.19-1.45-3.17-2.32l0,0c-3.52-3.12-5.97-7.42-6.75-12.27
		c-0.18-1.09-0.27-2.2-0.27-3.34c0-2.71,0.52-5.3,1.46-7.68c1.9-4.81,5.55-8.74,10.15-11.02c2.78-1.38,5.9-2.15,9.21-2.16h0.04
		c6.67,0,12.6,3.13,16.42,7.99C61.61,33.11,63.27,37.58,63.27,42.44z"/>
	<path class="st0" d="M35.39,58.36l-3.64,2.01c-1.13-0.67-2.19-1.45-3.17-2.32l0,0l-6.75-12.27c-0.18-1.09-0.27-2.2-0.27-3.34
		c0-2.71,0.52-5.3,1.46-7.68l7.02-3.86l2.3,4.22l-7.49,4.03l2,3.6l4.71-2.5l2.37,4.56l-4.59,2.49L35.39,58.36z"/>
	<path class="st0" d="M46.51,35.75c0.92-0.96,1.22-2.3,0.92-4.01l-1.04-6.19c-0.3-1.72-1.05-2.88-2.23-3.47
		c-0.5-0.25-1.1-0.42-1.8-0.49c-3.31,0.01-6.43,0.78-9.21,2.16l4.67,26.3l4.22-0.75L40,38.1l1.79-0.32
		C44.02,37.38,45.59,36.71,46.51,35.75z M39.19,34.19l-1.23-8.43l1.74-0.31c0.85-0.15,1.49-0.11,1.92,0.12
		c0.42,0.23,0.68,0.66,0.79,1.27l0.59,4.8c0.21,1.21-0.46,1.95-2.02,2.23L39.19,34.19z"/>
	<path class="st0" d="M58.83,29.57c-1.2-0.27-2.79-0.08-4.75,0.55l-5.76,1.86l8.31,25.72c1.23-1.14,2.32-2.44,3.24-3.85l-2.54-7.71
		l1.73-0.56c1.98-0.64,3.37-1.43,4.19-2.39c0.01-0.25,0.01-0.5,0.01-0.75C63.27,37.58,61.61,33.11,58.83,29.57z M57.72,41.82
		l-1.73,0.56l-2.37-8.18l1.68-0.54c0.83-0.27,1.47-0.32,1.91-0.14c0.45,0.17,0.77,0.56,0.96,1.15l1.24,4.67
		C59.79,40.51,59.23,41.33,57.72,41.82z"/>
	<path class="st0" d="M14.01,47.17c0.72-0.16,1.2,0.31,1.44,1.41c0.24,1.1,0,1.73-0.73,1.89l-4.35,0.94
		c-0.72,0.16-1.21-0.32-1.44-1.42c-0.24-1.1,0.01-1.72,0.73-1.88L14.01,47.17z M14.18,49.42c0.24-0.05,0.33-0.25,0.26-0.58
		c-0.07-0.33-0.23-0.46-0.47-0.41l-3.69,0.75c-0.25,0.05-0.34,0.24-0.27,0.57c0.07,0.33,0.23,0.48,0.48,0.42L14.18,49.42z"/>
	<path class="st4" d="M74.48,38.88c0,0.63-0.51,1.14-1.14,1.14c-0.63,0-1.14-0.51-1.14-1.14c0-0.63,0.51-1.14,1.14-1.14
		C73.97,37.74,74.48,38.25,74.48,38.88z"/>
	<g>
		<path class="st5" d="M54.07,30.12l-5.76,1.86l8.31,25.72c-3.73,3.47-8.72,5.6-14.22,5.6c-3.9,0-7.54-1.07-10.66-2.93l3.64-2.01
			L29.32,47.3l4.59-2.49l-2.37-4.56l-4.71,2.5l-2-3.6l7.49-4.03l-2.3-4.22l-7.02,3.86c1.9-4.81,5.55-8.74,10.15-11.02l4.67,26.3
			l4.22-0.75L40,38.1l1.79-0.32c2.23-0.4,3.8-1.07,4.72-2.03c0.92-0.96,1.22-2.3,0.92-4.01l-1.04-6.19
			c-0.3-1.72-1.05-2.88-2.23-3.47c-0.5-0.25-1.1-0.42-1.8-0.49h0.04c6.67,0,12.6,3.13,16.42,7.99
			C57.62,29.3,56.04,29.48,54.07,30.12z"/>
		<path class="st5" d="M28.57,58.04c-3.52-3.12-5.97-7.42-6.75-12.27L28.57,58.04z"/>
		<path class="st5" d="M40.98,33.87l-1.79,0.32l-1.23-8.43l1.74-0.31c0.85-0.15,1.49-0.11,1.92,0.12c0.42,0.23,0.68,0.66,0.79,1.27
			l0.59,4.8C43.21,32.85,42.53,33.59,40.98,33.87z"/>
		<path class="st5" d="M63.25,43.19c-0.14,3.93-1.36,7.58-3.39,10.66l-2.54-7.71l1.73-0.56C61.04,44.94,62.43,44.15,63.25,43.19z"/>
		<path class="st5" d="M57.72,41.82l-1.73,0.56l-2.37-8.18l1.68-0.54c0.83-0.27,1.47-0.32,1.91-0.14c0.45,0.17,0.77,0.56,0.96,1.15
			l1.24,4.67C59.79,40.51,59.23,41.33,57.72,41.82z"/>
	</g>
	<path class="st6" d="M79.69,31.45c-0.13-0.59-0.56-1.1-1.26-1.52c-2.7-1.65-9.4-2.07-18.23-1.29c0.79,1,1.49,2.07,2.1,3.2
		c5.93-0.46,10.82-0.35,14.06,0.33c-2.41,1.92-6.51,4.02-11.77,6.07c-6.08,2.37-13.72,4.66-22.13,6.52
		c-7.89,1.75-15.34,2.87-21.61,3.35c-5.88,0.45-10.74,0.34-13.96-0.33c2.64-2.1,7.3-4.42,13.29-6.65c0.08-1.31,0.27-2.6,0.57-3.84
		c-9.03,3.21-15.34,6.67-16.87,9.42c-0.32,0.57-0.43,1.11-0.32,1.62c0.13,0.61,0.59,1.13,1.33,1.56c2.62,1.54,8.83,1.99,17.02,1.35
		c6.25-0.49,13.65-1.6,21.49-3.34c8.15-1.81,15.59-4.02,21.58-6.31c7.58-2.9,12.85-5.92,14.33-8.4
		C79.67,32.57,79.81,31.99,79.69,31.45z"/>
	<path class="st0" d="M17.71,55.29l-5.84,2.64l-1.42-3.15l1.06-0.47l0.82,1.87l0.9-0.41l-0.51-1.18l1.14-0.48l0.51,1.15l2.77-1.24
		L17.71,55.29z"/>
	<path class="st0" d="M14.74,42.65c-0.49,0.09-2.11,0.52-2.6,0.65l0,0.48l2.6-0.04l0,1.18L8.3,44.92l0-1.63
		c0-0.61,0.09-1.07,0.26-1.38c0.18-0.31,0.47-0.46,0.9-0.46l1.31,0c0.25,0,0.45,0.06,0.59,0.17c0.14,0.11,0.26,0.28,0.34,0.52
		c0.52-0.15,1.03-0.29,1.53-0.41c0.5-0.12,1-0.24,1.51-0.36L14.74,42.65z M9.92,42.65c-0.2,0-0.34,0.04-0.44,0.11
		c-0.09,0.08-0.14,0.25-0.14,0.53l0,0.44l1.6-0.02l0-0.46c0-0.42-0.14-0.64-0.41-0.64L9.92,42.65z"/>
	<path class="st0" d="M14.93,39.22l-6.81-1.39l0.38-1.88c0.13-0.63,0.31-1.06,0.56-1.29c0.24-0.23,0.57-0.3,0.98-0.22l1.38,0.28
		c0.39,0.08,0.58,0.34,0.59,0.77c0.07-0.2,0.18-0.37,0.33-0.49c0.15-0.13,0.33-0.17,0.54-0.12l1.66,0.34
		c0.4,0.08,0.66,0.3,0.78,0.65c0.12,0.35,0.11,0.85-0.02,1.48L14.93,39.22z M10.02,35.69c-0.14-0.03-0.25-0.01-0.33,0.07
		c-0.08,0.07-0.13,0.2-0.17,0.39l-0.12,0.58l1.54,0.31l0.12-0.59c0.07-0.35-0.01-0.55-0.25-0.6L10.02,35.69z M12.68,36.21
		c-0.14-0.03-0.25-0.01-0.33,0.06c-0.08,0.07-0.14,0.21-0.18,0.41l-0.12,0.59l2.06,0.41l0.12-0.58c0.08-0.38-0.02-0.59-0.28-0.65
		L12.68,36.21z"/>
	<path class="st0" d="M16.22,33.49l-6.08-2.38l0.42-1.08l6.08,2.38L16.22,33.49z"/>
	<path class="st0" d="M17.28,30.73l-5.69-3.49l0.91-1.49c0.31-0.5,0.63-0.83,0.95-0.97c0.33-0.15,0.64-0.12,0.95,0.06l3.75,2.3
		c0.65,0.4,0.66,1.1,0.04,2.1L17.28,30.73z M14.03,26.07c-0.22-0.14-0.43-0.05-0.61,0.25l-0.27,0.43l3.88,2.39l0.27-0.43
		c0.19-0.3,0.17-0.52-0.05-0.66L14.03,26.07z"/>
	<path class="st0" d="M23.7,22.02l-3.96-5.1l2.5-1.94l0.7,0.88L21.48,17l0.68,0.9l1.23-0.96l0.65,0.84l-1.23,0.96l1.19,1.56
		l1.52-1.18l0.74,0.92L23.7,22.02z"/>
	<path class="st0" d="M30.25,17.62c-0.43-0.4-2.49-1.9-2.69-2.09c0.22,0.39,1.36,2.75,1.36,2.75l-0.96,0.52l-2.96-5.71l1.05-0.56
		c0.43,0.45,2.66,2.31,2.84,2.5c-0.19-0.32-1.57-3.17-1.57-3.17l1-0.5l2.96,5.71L30.25,17.62z"/>
	<path class="st0" d="M46.65,15.17l1.52-6.52l1.43,0.33c0.55,0.13,0.93,0.31,1.13,0.56c0.21,0.25,0.26,0.57,0.16,0.99l-0.36,1.48
		c-0.1,0.41-0.29,0.68-0.59,0.81c-0.3,0.13-0.71,0.13-1.25,0l-0.43-0.1l-0.61,2.69L46.65,15.17z M49.88,10.44
		c0.03-0.15,0.02-0.27-0.06-0.36c-0.07-0.09-0.21-0.16-0.41-0.21L49,9.78l-0.53,1.99l0.43,0.1c0.37,0.09,0.59-0.01,0.66-0.31
		L49.88,10.44z"/>
	<path class="st0" d="M51.5,16.3l2.52-6l1.09,0.45l-2.13,5.01l1.85,0.79l-0.39,0.99L51.5,16.3z"/>
	<path class="st0" d="M58.32,19.7l0.66-1.28l-1.03-0.79c-0.14,0.11-1.11,1.06-1.24,1.17l-0.91-0.71l5.16-4.42l1.09,0.84l-2.78,5.92
		L58.32,19.7z M59.55,17.57c0.24-0.46,0.48-1.54,0.74-2c-0.76,0.73-0.82,0.71-1.58,1.35L59.55,17.57z"/>
	<path class="st0" d="M67.88,31.44l5.02-2.01l-0.43-1.12L73.43,28l1.33,3.43l-0.95,0.4l-0.47-1.18l-5.04,1.93L67.88,31.44z"/>
	<path class="st0" d="M61.79,70.96l-0.9,0.61l-3.17-4.66c-0.43-0.63-0.21-1.23,0.64-1.82c0.86-0.58,1.5-0.56,1.92,0.07l3.17,4.66
		l-0.9,0.61l-2.92-4.37c-0.15-0.22-0.35-0.24-0.6-0.06c-0.25,0.17-0.31,0.37-0.16,0.58L61.79,70.96z"/>
	<path class="st0" d="M54.42,70.07l-0.92,0.4l-0.58-1.32c-0.16-0.37-0.18-0.69-0.04-0.96c0.13-0.27,0.43-0.51,0.9-0.71
		c0.97-0.42,1.61-0.28,1.93,0.44l1.9,4.34c0.32,0.73,0,1.31-0.97,1.74c-0.89,0.39-1.49,0.22-1.81-0.5l-0.49-1.13l0.92-0.4l0.4,0.93
		c0.05,0.12,0.12,0.2,0.21,0.23c0.09,0.03,0.21,0.02,0.36-0.05c0.28-0.12,0.37-0.31,0.27-0.55l-1.81-4.15
		c-0.11-0.25-0.3-0.31-0.59-0.19c-0.28,0.12-0.36,0.31-0.25,0.55L54.42,70.07z"/>
	<path class="st0" d="M28.06,71.84c0.06-0.14,0.09-0.26,0.08-0.36c-0.01-0.1-0.06-0.24-0.15-0.41c-0.05-0.1-0.12-0.23-0.21-0.38
		c-0.09-0.15-0.17-0.31-0.26-0.47c-0.09-0.16-0.17-0.32-0.25-0.47c-0.08-0.15-0.14-0.28-0.18-0.38c-0.06-0.16-0.09-0.31-0.08-0.44
		c0.01-0.13,0.05-0.29,0.14-0.46l0.57-1.23c0.31-0.66,1.01-0.73,2.09-0.22c0.55,0.26,0.91,0.53,1.06,0.8
		c0.15,0.27,0.15,0.58-0.17,1.29l-0.52,1.09l-1.05-0.5l0.45-1.02c0.05-0.1,0.05-0.19,0-0.29c-0.05-0.09-0.15-0.18-0.32-0.26
		c-0.32-0.15-0.52-0.12-0.62,0.09l-0.29,0.86c-0.04,0.08-0.06,0.16-0.07,0.24c-0.01,0.07,0.02,0.16,0.07,0.26
		c0.03,0.08,0.09,0.19,0.17,0.33c0.08,0.14,0.17,0.29,0.26,0.45c0.09,0.16,0.18,0.32,0.27,0.49c0.09,0.16,0.16,0.31,0.22,0.44
		c0.05,0.11,0.08,0.21,0.11,0.3c0.02,0.09,0.03,0.18,0.03,0.27c0,0.09-0.02,0.18-0.04,0.28c-0.03,0.1-0.07,0.2-0.12,0.32l-0.32,0.45
		c-0.15,0.32-0.39,0.51-0.72,0.56c-0.33,0.05-0.77-0.05-1.33-0.32c-0.56-0.27-0.93-0.54-1.1-0.83c-0.17-0.29-0.18-0.6-0.03-0.92
		l0.26-0.53l1.08,0.52l-0.26,0.53c-0.05,0.1-0.05,0.19,0,0.29c0.05,0.09,0.16,0.18,0.33,0.26c0.32,0.15,0.54,0.12,0.64-0.09
		L28.06,71.84z"/>
	<path class="st0" d="M20.14,25.97l-5.03-4.39l1.15-1.31c0.39-0.44,0.75-0.71,1.1-0.8c0.35-0.09,0.65-0.02,0.92,0.22l3.31,2.89
		c0.57,0.5,0.47,1.19-0.31,2.08L20.14,25.97z M17.71,20.83c-0.2-0.17-0.41-0.12-0.65,0.15l-0.33,0.38l3.43,3.01l0.33-0.38
		c0.23-0.27,0.25-0.49,0.06-0.66L17.71,20.83z"/>
	<path class="st0" d="M62.59,23.55c0.27-0.52,1.15-2.92,1.28-3.16c-0.31,0.32-2.28,2.06-2.28,2.06l-0.77-0.78l4.68-4.4l0.82,0.86
		c-0.31,0.53-1.5,3.19-1.63,3.42c0.26-0.27,2.62-2.38,2.62-2.38L68.08,20l-4.68,4.4L62.59,23.55z"/>
	<path class="st0" d="M64.74,26.01l5.52-3.36l1.64,2.7l-0.96,0.6l-0.96-1.58l-0.97,0.57l0.81,1.33l-0.91,0.55l-0.81-1.33l-1.68,1
		l1,1.64l-1,0.64L64.74,26.01z"/>
	<path class="st0" d="M34.24,68.99c0.04,0.59,0.52,3.09,0.53,3.37c0.1-0.43,0.89-2.94,0.89-2.94l1.06,0.27l-1.74,6.19l-1.15-0.31
		c-0.01-0.62-0.36-3.51-0.37-3.77c-0.08,0.37-1.01,3.39-1.01,3.39l-1.07-0.32l1.74-6.19L34.24,68.99z"/>
	<path class="st0" d="M38.74,71.04c0.07-0.74,0.66-1.05,1.78-0.95c1.12,0.11,1.65,0.53,1.58,1.27l-0.42,4.43
		c-0.07,0.74-0.67,1.05-1.79,0.94c-1.12-0.11-1.64-0.53-1.57-1.27L38.74,71.04z M40.94,71.55c0.02-0.25-0.13-0.39-0.48-0.42
		c-0.33-0.03-0.51,0.08-0.53,0.32l-0.4,3.75c-0.02,0.25,0.13,0.39,0.46,0.43c0.34,0.03,0.52-0.08,0.55-0.33L40.94,71.55z"/>
	<path class="st0" d="M44.71,76.67l-0.4-6.52l1.16-0.07l0.4,6.52L44.71,76.67z"/>
	<path class="st0" d="M63.54,60.49l4.86,4.57l-1.19,1.27c-0.4,0.43-0.78,0.68-1.13,0.76c-0.35,0.08-0.65-0.01-0.91-0.25l-3.2-3.01
		c-0.55-0.52-0.42-1.21,0.39-2.07L63.54,60.49z M65.77,65.72c0.19,0.18,0.41,0.14,0.65-0.12l0.35-0.37l-3.31-3.13l-0.35,0.37
		c-0.24,0.26-0.27,0.48-0.08,0.66L65.77,65.72z"/>
	<path class="st0" d="M71.31,59.07c0.61,0.41,0.61,1.09-0.02,2.01c-0.63,0.94-1.25,1.2-1.87,0.78l-3.69-2.49
		c-0.61-0.41-0.61-1.09,0.03-2.03c0.63-0.93,1.25-1.19,1.86-0.77L71.31,59.07z M69.8,60.75c0.21,0.14,0.4,0.07,0.6-0.22
		c0.19-0.28,0.18-0.48-0.03-0.62l-3.1-2.14c-0.21-0.14-0.41-0.07-0.6,0.2c-0.19,0.28-0.18,0.5,0.03,0.64L69.8,60.75z"/>
	<path class="st0" d="M68.25,52.64c0.48,0.12,2.13,0.39,2.63,0.48l0.2-0.44l-2.38-1.04l0.49-1.08l5.86,2.66l-0.67,1.48
		c-0.25,0.56-0.52,0.94-0.81,1.15c-0.29,0.21-0.62,0.23-1.01,0.05l-1.19-0.54c-0.23-0.1-0.38-0.23-0.47-0.39
		c-0.09-0.16-0.12-0.36-0.09-0.62c-0.54-0.08-1.06-0.16-1.57-0.26c-0.51-0.09-1.01-0.19-1.52-0.29L68.25,52.64z M72.64,54.63
		c0.18,0.08,0.33,0.11,0.45,0.08c0.12-0.03,0.23-0.17,0.35-0.43l0.18-0.41l-1.47-0.64l-0.19,0.42c-0.18,0.39-0.14,0.64,0.11,0.75
		L72.64,54.63z"/>
	<path class="st0" d="M69.99,45.89l6.56,1.35l-0.3,1.44c-0.11,0.55-0.29,0.93-0.53,1.15c-0.24,0.21-0.57,0.28-0.98,0.19l-1.49-0.32
		c-0.41-0.08-0.69-0.27-0.82-0.57c-0.13-0.29-0.15-0.71-0.03-1.25l0.09-0.43l-2.7-0.54L69.99,45.89z M74.8,49
		c0.15,0.03,0.27,0.01,0.36-0.06c0.09-0.07,0.16-0.21,0.2-0.42l0.09-0.42l-2.01-0.48l-0.09,0.43c-0.08,0.38,0.03,0.59,0.32,0.65
		L74.8,49z"/>
	<path class="st0" d="M49.71,69.29l1.24,5.26l1.17-0.26l0.17,1.01l-3.59,0.81l-0.25-1l1.24-0.29l-1.16-5.27L49.71,69.29z"/>
	<path class="st4" d="M39.41,11.96c0,0.63-0.51,1.14-1.14,1.14c-0.63,0-1.14-0.51-1.14-1.14c0-0.63,0.51-1.14,1.14-1.14
		C38.91,10.82,39.41,11.33,39.41,11.96z"/>
	<path class="st4" d="M21.35,63.95c0,0.63-0.51,1.14-1.14,1.14c-0.63,0-1.14-0.51-1.14-1.14s0.51-1.14,1.14-1.14
		C20.84,62.81,21.35,63.32,21.35,63.95z"/>
</g>
</svg>
